<svg width="180" height="32" viewBox="0 0 180 32" fill="none" xmlns="http://www.w3.org/2000/svg">
<path d="M0 6.9375C0 3.10602 3.10602 0 6.9375 0H25.0625C28.894 0 32 3.10602 32 6.9375V25.0625C32 28.894 28.894 32 25.0625 32H6.9375C3.10602 32 0 28.894 0 25.0625V6.9375Z" fill="#635BFF"/>
<path d="M23.9129 9L20.7965 17.2906C19.585 15.9238 17.8532 15.1454 16 15.1454C14.1468 15.1454 12.415 15.9238 11.2035 17.2906L8.08706 9.00001H4L9.75879 24H13.3869V20.7745C13.3869 19.4328 14.5589 18.3416 16 18.3416C17.4411 18.3416 18.6131 19.4328 18.6131 20.7745V24H22.191L28 9.00001L23.9129 9Z" fill="white"/>
<path d="M57.4836 4.1188L51.5403 21.31L45.5659 4.1188H40L48.5997 28H54.4498L63.0495 4.1188H57.4836Z" fill="#635BFF"/>
<path d="M77.946 19.2658C77.443 21.8733 75.7616 23.3682 73.3327 23.3682C69.8586 23.3682 67.7855 20.604 67.7855 15.9719C67.7855 13.7719 68.2556 11.9259 69.1441 10.63C70.1078 9.22597 71.5165 8.51298 73.3327 8.51298C75.6707 8.51298 77.3301 9.87471 77.8849 12.2503L77.9444 12.5057L83.3098 12.2221L83.2283 11.8601C82.1236 6.93814 78.4599 4 73.4283 4C66.9706 4 62.4592 8.92354 62.4592 15.9719C62.4592 19.2987 63.5029 22.3089 65.3974 24.4463C67.3906 26.6934 70.1673 27.8812 73.4283 27.8812C78.6558 27.8812 82.2756 24.8772 83.3568 19.6403L83.4305 19.283L77.9992 18.9994L77.9475 19.2674L77.946 19.2658Z" fill="#635BFF"/>
<path d="M105.131 20.7904L102.106 9.94058H97.8926L94.867 20.7904L91.9278 9.94058H86.9307L92.1791 27.8812H97.1087L100.015 17.3455L102.923 27.8812H107.821L113.069 9.94058H108.071L105.131 20.7904Z" fill="#635BFF"/>
<path d="M122.078 9.94058C116.766 9.94058 113.334 13.471 113.334 18.9352C113.334 24.3994 116.766 27.9298 122.078 27.9298C124.66 27.9298 126.853 27.0789 128.421 25.4696C129.991 23.8572 130.822 21.5975 130.822 18.9352C130.822 16.2729 129.991 14.0132 128.421 12.4008C126.853 10.7915 124.659 9.94058 122.078 9.94058ZM122.078 23.7616C119.867 23.7616 118.599 22.0018 118.599 18.9352C118.599 15.8686 119.867 14.1088 122.078 14.1088C124.289 14.1088 125.557 15.8686 125.557 18.9352C125.557 22.0018 124.289 23.7616 122.078 23.7616Z" fill="#635BFF"/>
<path d="M138.27 12.0545L138.21 9.94058H133.33V27.8812H138.47V17.5562C138.47 15.0522 139.52 13.9835 141.98 13.9835H143.861V9.94058H142.012C140.288 9.94058 139.053 10.6348 138.271 12.0545H138.27Z" fill="#635BFF"/>
<path d="M163.676 9.94059H157.386L151.099 17.0525V4.1188H145.959V27.8288H151.099V23.0306L153.125 20.8446L157.699 27.8288H163.419L156.453 17.7686L163.676 9.94059Z" fill="#635BFF"/>
<path d="M171.587 17.1601C169.647 16.8185 168.734 16.2465 168.712 15.3533C168.691 14.9584 168.817 14.6153 169.085 14.3332C169.481 13.9164 170.157 13.6766 170.937 13.6766C172.358 13.6766 173.521 14.6153 173.762 15.9566L173.811 16.2261L178.947 16.0115L178.894 15.6651C178.338 12.061 175.361 9.82178 171.125 9.82178C166.297 9.82178 163.415 11.9184 163.415 15.4317C163.415 18.7239 166.211 19.9211 170.716 20.7846L171.014 20.8472C172.726 21.203 173.767 21.496 173.79 22.5553C173.798 22.842 173.703 23.0818 173.501 23.2886C173.019 23.7807 172.071 23.9577 171.346 23.9577C169.613 23.9577 168.497 23.1241 168.206 21.6104L168.154 21.344L163.019 21.5916L163.041 21.9112C163.299 25.5702 166.53 27.8439 171.47 27.8439C176.409 27.8439 179.054 25.8993 179.054 22.6415C179.054 19.0718 176.067 17.8684 171.587 17.1616V17.1601Z" fill="#635BFF"/>
</svg>
